<svg width="13" height="13" viewBox="0 0 13 13" fill="none" xmlns="http://www.w3.org/2000/svg">
<path d="M11.6455 11.1579C11.9214 11.1582 12.1454 11.382 12.1455 11.6579C12.1455 11.9339 11.9214 12.1576 11.6455 12.1579H0.5C0.223858 12.1579 0 11.934 0 11.6579C7.31999e-05 11.3818 0.223903 11.1579 0.5 11.1579H11.6455ZM9.19922 0.329755C9.79212 -0.149663 10.6461 -0.101305 11.1826 0.44206L11.5195 0.783857C12.1478 1.42033 12.0905 2.46901 11.3965 3.03093L4.73535 8.42058C4.65749 8.48358 4.57306 8.5386 4.48438 8.58464L3.72461 8.98015C2.43707 9.64807 1.05877 8.25227 1.71777 6.94792L2.05664 6.27995C2.15288 6.08972 2.28826 5.92215 2.45312 5.78874L9.19922 0.329755ZM10.4795 1.153C10.3006 0.972222 10.0159 0.956108 9.81836 1.11589L3.07227 6.57487C3.01741 6.61932 2.97246 6.6756 2.94043 6.73894L2.60352 7.40593C2.38356 7.84082 2.84317 8.30649 3.27246 8.08366L4.03223 7.68913C4.06157 7.67386 4.08945 7.65529 4.11523 7.63444L10.7764 2.24479C11.0077 2.0576 11.0265 1.70798 10.8174 1.49577L10.4795 1.153Z" fill="#888888"/>
</svg>
